<svg width="658" height="112" viewBox="0 0 658 112" fill="none" xmlns="http://www.w3.org/2000/svg">
<g clip-path="url(#clip0_3_287)">
<path d="M33.0086 17.1455C33.0086 26.1786 25.6847 33.5156 16.6384 33.5156C7.59204 33.5156 0.281342 26.1786 0.281342 17.1455C0.281342 8.11227 7.60519 0.775269 16.6515 0.775269C25.6979 0.775269 33.0217 8.09912 33.0217 17.1455" fill="white"/>
<path d="M71.8763 17.1455C71.8763 26.1786 64.5524 33.5156 55.5061 33.5156C46.4597 33.5156 39.1359 26.1918 39.1359 17.1455C39.1359 8.09912 46.4729 0.775269 55.5061 0.775269C64.5393 0.775269 71.8763 8.09912 71.8763 17.1455Z" fill="white"/>
<path d="M110.731 17.1455C110.731 26.1786 103.407 33.5156 94.3606 33.5156C85.3143 33.5156 77.9904 26.1918 77.9904 17.1455C77.9904 8.09912 85.3274 0.775269 94.3738 0.775269C103.42 0.775269 110.744 8.09912 110.744 17.1455" fill="white"/>
<path d="M110.731 94.8677C110.731 103.901 103.407 111.238 94.3606 111.238C85.3143 111.238 77.9904 103.914 77.9904 94.8677C77.9904 85.8213 85.3143 78.4975 94.3606 78.4975C103.407 78.4975 110.731 85.8213 110.731 94.8677Z" fill="#FFD700"/>
<path d="M110.731 55.6976C110.731 64.7308 103.407 72.0678 94.3606 72.0678C85.3143 72.0678 77.9904 64.7439 77.9904 55.6976C77.9904 46.6512 85.3143 39.3274 94.3606 39.3274C103.407 39.3274 110.731 46.6512 110.731 55.6976Z" fill="#FCA100"/>
<path d="M33.0086 94.8677C33.0086 103.901 25.6847 111.238 16.6384 111.238C7.59204 111.238 0.281342 103.901 0.281342 94.8677C0.281342 85.8345 7.60519 78.4975 16.6515 78.4975C25.6979 78.4975 33.0217 85.8213 33.0217 94.8677" fill="#FCA100"/>
<path d="M33.0086 55.6976C33.0086 64.7308 25.6847 72.0678 16.6384 72.0678C7.59204 72.0678 0.281342 64.7308 0.281342 55.6976C0.281342 46.6644 7.60519 39.3274 16.6515 39.3274C25.6979 39.3274 33.0217 46.6512 33.0217 55.6976" fill="#FFD700"/>
<path d="M55.5061 39.6429C64.5393 39.6429 71.8763 46.9668 71.8763 56.0131C71.8763 65.0595 64.5524 72.3833 55.5061 72.3833C46.4597 72.3833 39.1359 65.0595 39.1359 56.0131C39.1359 46.9668 46.4597 39.6429 55.5061 39.6429Z" fill="white"/>
<path d="M55.5061 78.4975C64.5393 78.4975 71.8763 85.8213 71.8763 94.8677C71.8763 103.914 64.5524 111.238 55.5061 111.238C46.4597 111.238 39.1359 103.914 39.1359 94.8677C39.1359 85.8213 46.4597 78.4975 55.5061 78.4975Z" fill="white"/>
<path d="M189.321 24.6271V34.5939H175.791V77.919H163.352V34.5939H149.835V24.6271H189.321Z" fill="white"/>
<path d="M231.712 41.5232C234.526 44.6001 235.933 48.8339 235.933 54.2118V77.919H223.573V55.8817C223.573 53.1599 222.863 51.0561 221.47 49.5571C220.063 48.0582 218.169 47.3087 215.802 47.3087C213.436 47.3087 211.542 48.0582 210.135 49.5571C208.728 51.0561 208.032 53.173 208.032 55.8817V77.919H195.593V24.6271H208.032V42.7987C209.294 41.0104 211.016 39.5772 213.199 38.5122C215.382 37.4471 217.827 36.908 220.536 36.908C225.191 36.908 228.925 38.4464 231.739 41.5232" fill="white"/>
<path d="M252.33 75.9598C249.161 74.2636 246.663 71.8442 244.835 68.6885C243.02 65.5328 242.113 61.8512 242.113 57.6304C242.113 53.4097 243.034 49.7938 244.874 46.6118C246.715 43.4429 249.24 40.9973 252.435 39.3011C255.63 37.6049 259.22 36.7634 263.191 36.7634C267.161 36.7634 270.751 37.6049 273.946 39.3011C277.141 40.9973 279.666 43.4298 281.507 46.6118C283.348 49.7806 284.268 53.4623 284.268 57.6304C284.268 61.7986 283.334 65.4671 281.467 68.6491C279.6 71.8311 277.049 74.2636 273.828 75.9598C270.606 77.656 267.004 78.5106 263.033 78.5106C259.062 78.5106 255.485 77.656 252.303 75.9598M269.121 65.1252C270.791 63.3764 271.632 60.8782 271.632 57.6304C271.632 54.3827 270.817 51.8844 269.2 50.1356C267.582 48.3869 265.57 47.519 263.204 47.519C260.837 47.519 258.773 48.3869 257.168 50.0962C255.564 51.8187 254.762 54.3301 254.762 57.6173C254.762 60.9045 255.551 63.3633 257.129 65.1121C258.707 66.8608 260.679 67.7287 263.059 67.7287C265.439 67.7287 267.464 66.8608 269.134 65.1121" fill="white"/>
<path d="M330.972 37.3419V77.9189H318.534V72.3965C317.271 74.1847 315.562 75.6311 313.406 76.7224C311.249 77.8138 308.856 78.3529 306.24 78.3529C303.136 78.3529 300.401 77.656 298.022 76.2754C295.642 74.8947 293.801 72.8961 292.499 70.2795C291.197 67.6629 290.54 64.5861 290.54 61.0491V37.3419H302.9V59.3792C302.9 62.0879 303.597 64.2048 305.004 65.7038C306.41 67.2027 308.304 67.9522 310.671 67.9522C313.037 67.9522 315.01 67.2027 316.417 65.7038C317.824 64.2048 318.52 62.0879 318.52 59.3792V37.3419H330.959H330.972Z" fill="white"/>
<path d="M346.961 76.683C344.2 75.4733 342.017 73.8166 340.413 71.6996C338.809 69.5958 337.915 67.229 337.718 64.6124H350.012C350.156 66.0194 350.814 67.1502 351.971 68.0311C353.141 68.8989 354.561 69.346 356.257 69.346C357.809 69.346 359.005 69.0436 359.86 68.4387C360.715 67.8339 361.136 67.045 361.136 66.072C361.136 64.9017 360.531 64.0471 359.321 63.4948C358.111 62.9426 356.152 62.3246 353.43 61.6408C350.524 60.9571 348.092 60.2471 346.159 59.4976C344.213 58.7481 342.543 57.5647 341.136 55.9343C339.729 54.3038 339.032 52.1211 339.032 49.3599C339.032 47.0326 339.677 44.9156 340.965 42.9959C342.254 41.0762 344.134 39.5641 346.632 38.4464C349.131 37.3288 352.102 36.7766 355.547 36.7766C360.636 36.7766 364.646 38.0388 367.578 40.5634C370.511 43.0879 372.194 46.4277 372.628 50.5959H361.136C360.938 49.189 360.32 48.0713 359.282 47.2561C358.243 46.4277 356.862 46.0201 355.179 46.0201C353.72 46.0201 352.602 46.2962 351.839 46.8616C351.064 47.4139 350.669 48.1897 350.669 49.1495C350.669 50.3066 351.287 51.1876 352.523 51.7661C353.759 52.3447 355.692 52.9364 358.309 53.5149C361.32 54.2907 363.765 55.0533 365.659 55.8028C367.552 56.5523 369.209 57.762 370.642 59.4318C372.075 61.1017 372.812 63.3502 372.864 66.164C372.864 68.5439 372.194 70.6609 370.866 72.528C369.538 74.3951 367.618 75.8678 365.12 76.9328C362.621 77.9979 359.729 78.537 356.428 78.537C352.891 78.537 349.736 77.9321 346.974 76.7224" fill="white"/>
<path d="M380.385 46.5723C381.963 43.4166 384.106 40.9973 386.815 39.3011C389.524 37.6049 392.561 36.7634 395.901 36.7634C398.754 36.7634 401.266 37.3419 403.422 38.5121C405.578 39.6824 407.235 41.2076 408.405 43.0879V37.3419H420.844V77.9189H408.405V72.1729C407.196 74.0664 405.513 75.5916 403.356 76.7619C401.2 77.9189 398.688 78.5106 395.835 78.5106C392.535 78.5106 389.537 77.656 386.815 75.9335C384.093 74.211 381.95 71.7653 380.385 68.5965C378.807 65.4145 378.019 61.746 378.019 57.5778C378.019 53.4097 378.807 49.7543 380.385 46.5986M405.828 50.2803C404.106 48.492 402.015 47.5848 399.543 47.5848C397.071 47.5848 394.98 48.4657 393.258 50.2408C391.535 52.0159 390.681 54.4484 390.681 57.5515C390.681 60.6546 391.535 63.1135 393.258 64.928C394.98 66.7425 397.071 67.6498 399.543 67.6498C402.015 67.6498 404.106 66.7557 405.828 64.9543C407.551 63.1661 408.405 60.7072 408.405 57.6173C408.405 54.5273 407.537 52.0685 405.828 50.2671" fill="white"/>
<path d="M465.971 41.5232C468.811 44.6 470.218 48.8339 470.218 54.2118V77.919H457.858V55.8817C457.858 53.1599 457.161 51.0561 455.754 49.5571C454.347 48.0582 452.454 47.3087 450.087 47.3087C447.72 47.3087 445.827 48.0582 444.42 49.5571C443.013 51.0561 442.316 53.173 442.316 55.8817V77.919H429.877V37.3419H442.316V42.7198C443.578 40.9315 445.274 39.5115 447.404 38.4596C449.535 37.4208 451.941 36.8949 454.597 36.8949C459.344 36.8949 463.144 38.4333 465.984 41.5101" fill="white"/>
<path d="M478.764 46.5724C480.342 43.4167 482.485 40.9973 485.194 39.3011C487.903 37.6049 490.94 36.7634 494.28 36.7634C496.949 36.7634 499.381 37.3156 501.59 38.4333C503.799 39.5509 505.535 41.0499 506.784 42.9433V24.6271H519.223V77.919H506.784V72.1072C505.614 74.0532 503.957 75.6048 501.801 76.7619C499.644 77.919 497.133 78.5107 494.28 78.5107C490.94 78.5107 487.903 77.656 485.194 75.9335C482.472 74.211 480.329 71.7654 478.764 68.5965C477.186 65.4145 476.397 61.746 476.397 57.5779C476.397 53.4097 477.186 49.7544 478.764 46.5987M504.22 50.2803C502.498 48.4921 500.407 47.5848 497.935 47.5848C495.463 47.5848 493.373 48.4658 491.65 50.2409C489.928 52.0159 489.073 54.4485 489.073 57.5516C489.073 60.6547 489.928 63.1135 491.65 64.928C493.373 66.7425 495.463 67.6498 497.935 67.6498C500.407 67.6498 502.498 66.7557 504.22 64.9543C505.943 63.1661 506.797 60.7073 506.797 57.6173C506.797 54.5274 505.93 52.0685 504.22 50.2672" fill="white"/>
<path d="M535.304 76.683C532.543 75.4733 530.36 73.8166 528.756 71.6996C527.152 69.5958 526.258 67.229 526.06 64.6124H538.354C538.499 66.0194 539.156 67.1502 540.314 68.0311C541.484 68.8989 542.904 69.346 544.6 69.346C546.152 69.346 547.348 69.0436 548.203 68.4387C549.057 67.8339 549.478 67.045 549.478 66.072C549.478 64.9017 548.873 64.0471 547.664 63.4948C546.454 62.9426 544.482 62.3246 541.773 61.6408C538.867 60.9571 536.435 60.2471 534.502 59.4976C532.569 58.7481 530.886 57.5647 529.479 55.9343C528.072 54.3038 527.375 52.1211 527.375 49.3599C527.375 47.0326 528.019 44.9156 529.308 42.9959C530.597 41.0762 532.477 39.5641 534.975 38.4464C537.473 37.3288 540.445 36.7766 543.89 36.7766C548.979 36.7766 552.989 38.0388 555.921 40.5634C558.853 43.0879 560.536 46.4277 560.97 50.5959H549.478C549.281 49.189 548.663 48.0713 547.624 47.2561C546.585 46.4277 545.205 46.0201 543.522 46.0201C542.062 46.0201 540.958 46.2962 540.182 46.8616C539.406 47.4139 539.025 48.1897 539.025 49.1495C539.025 50.3066 539.643 51.1876 540.879 51.7661C542.115 52.3447 544.048 52.9364 546.664 53.5149C549.675 54.2907 552.121 55.0533 554.015 55.8028C555.908 56.5523 557.565 57.762 558.998 59.4318C560.431 61.1017 561.167 63.3502 561.22 66.164C561.22 68.5439 560.549 70.6609 559.221 72.528C557.893 74.3951 555.974 75.8678 553.475 76.9328C550.977 77.9979 548.084 78.537 544.784 78.537C541.247 78.537 538.091 77.9321 535.33 76.7224" fill="white"/>
<path d="M611.277 67.3211V77.919H604.913C600.377 77.919 596.853 76.8145 594.315 74.5923C591.778 72.3833 590.515 68.7543 590.515 63.7446V47.5191H585.545V37.1447H590.515V27.2043H603.02V37.1447H611.198V47.5191H603.02V63.8893C603.02 65.1121 603.309 65.9799 603.901 66.519C604.493 67.0581 605.466 67.3211 606.82 67.3211H611.277Z" fill="white"/>
<path d="M635.905 66.2297L644.741 37.1315H658.047L643.571 77.9189H628.16L613.684 37.1315H627.056L635.905 66.2297Z" fill="white"/>
<path d="M582.705 71.6733C582.705 75.4864 579.615 78.5632 575.815 78.5632C572.015 78.5632 568.925 75.4733 568.925 71.6733C568.925 67.8733 572.015 64.7834 575.815 64.7834C579.615 64.7834 582.705 67.8733 582.705 71.6733Z" fill="#FCA100"/>
</g>
<defs>
<clipPath id="clip0_3_287">
<rect width="657.437" height="110.449" fill="white" transform="translate(0.281342 0.775269)"/>
</clipPath>
</defs>
</svg>
