<svg width="123" height="25" viewBox="0 0 123 25" fill="none" xmlns="http://www.w3.org/2000/svg">
<g clip-path="url(#clip0_3_280)">
<path d="M7.61143 3.74061C7.61143 5.70347 6.02 7.29776 4.05429 7.29776C2.08857 7.29776 0.5 5.70347 0.5 3.74061C0.5 1.77776 2.09143 0.183472 4.05714 0.183472C6.02286 0.183472 7.61428 1.7749 7.61428 3.74061" fill="white"/>
<path d="M16.0571 3.74061C16.0571 5.70347 14.4657 7.29776 12.5 7.29776C10.5343 7.29776 8.94286 5.70633 8.94286 3.74061C8.94286 1.7749 10.5371 0.183472 12.5 0.183472C14.4629 0.183472 16.0571 1.7749 16.0571 3.74061Z" fill="white"/>
<path d="M24.5 3.74061C24.5 5.70347 22.9086 7.29776 20.9429 7.29776C18.9771 7.29776 17.3857 5.70633 17.3857 3.74061C17.3857 1.7749 18.98 0.183472 20.9457 0.183472C22.9114 0.183472 24.5029 1.7749 24.5029 3.74061" fill="white"/>
<path d="M24.5 20.6292C24.5 22.592 22.9086 24.1863 20.9429 24.1863C18.9771 24.1863 17.3857 22.5949 17.3857 20.6292C17.3857 18.6634 18.9771 17.072 20.9429 17.072C22.9086 17.072 24.5 18.6634 24.5 20.6292Z" fill="#FFD700"/>
<path d="M24.5 12.1178C24.5 14.0806 22.9086 15.6749 20.9429 15.6749C18.9771 15.6749 17.3857 14.0835 17.3857 12.1178C17.3857 10.152 18.9771 8.56061 20.9429 8.56061C22.9086 8.56061 24.5 10.152 24.5 12.1178Z" fill="#FCA100"/>
<path d="M7.61143 20.6292C7.61143 22.592 6.02 24.1863 4.05429 24.1863C2.08857 24.1863 0.5 22.592 0.5 20.6292C0.5 18.6663 2.09143 17.072 4.05714 17.072C6.02286 17.072 7.61428 18.6634 7.61428 20.6292" fill="#FCA100"/>
<path d="M7.61143 12.1178C7.61143 14.0806 6.02 15.6749 4.05429 15.6749C2.08857 15.6749 0.5 14.0806 0.5 12.1178C0.5 10.1549 2.09143 8.56061 4.05714 8.56061C6.02286 8.56061 7.61428 10.152 7.61428 12.1178" fill="#FFD700"/>
<path d="M12.5 8.62921C14.4629 8.62921 16.0571 10.2206 16.0571 12.1864C16.0571 14.1521 14.4657 15.7435 12.5 15.7435C10.5343 15.7435 8.94286 14.1521 8.94286 12.1864C8.94286 10.2206 10.5343 8.62921 12.5 8.62921Z" fill="white"/>
<path d="M12.5 17.072C14.4629 17.072 16.0571 18.6634 16.0571 20.6292C16.0571 22.5949 14.4657 24.1863 12.5 24.1863C10.5343 24.1863 8.94286 22.5949 8.94286 20.6292C8.94286 18.6634 10.5343 17.072 12.5 17.072Z" fill="white"/>
<path d="M41.5771 5.36633V7.53205H38.6371V16.9463H35.9343V7.53205H32.9971V5.36633H41.5771Z" fill="white"/>
<path d="M50.7886 9.03776C51.4 9.70633 51.7057 10.6263 51.7057 11.7949V16.9463H49.02V12.1578C49.02 11.5663 48.8657 11.1092 48.5629 10.7835C48.2571 10.4578 47.8457 10.2949 47.3314 10.2949C46.8171 10.2949 46.4057 10.4578 46.1 10.7835C45.7943 11.1092 45.6429 11.5692 45.6429 12.1578V16.9463H42.94V5.36633H45.6429V9.3149C45.9171 8.92633 46.2914 8.6149 46.7657 8.38348C47.24 8.15205 47.7714 8.0349 48.36 8.0349C49.3714 8.0349 50.1829 8.36919 50.7943 9.03776" fill="white"/>
<path d="M55.2686 16.5206C54.58 16.1521 54.0371 15.6263 53.64 14.9406C53.2457 14.2549 53.0486 13.4549 53.0486 12.5378C53.0486 11.6206 53.2486 10.8349 53.6486 10.1435C54.0486 9.45491 54.5971 8.92348 55.2914 8.55491C55.9857 8.18634 56.7657 8.00348 57.6286 8.00348C58.4914 8.00348 59.2714 8.18634 59.9657 8.55491C60.66 8.92348 61.2086 9.45205 61.6086 10.1435C62.0086 10.8321 62.2086 11.6321 62.2086 12.5378C62.2086 13.4435 62.0057 14.2406 61.6 14.9321C61.1943 15.6235 60.64 16.1521 59.94 16.5206C59.24 16.8892 58.4571 17.0749 57.5943 17.0749C56.7314 17.0749 55.9543 16.8892 55.2629 16.5206M58.9171 14.1663C59.28 13.7863 59.4629 13.2435 59.4629 12.5378C59.4629 11.8321 59.2857 11.2892 58.9343 10.9092C58.5829 10.5292 58.1457 10.3406 57.6314 10.3406C57.1171 10.3406 56.6686 10.5292 56.32 10.9006C55.9714 11.2749 55.7971 11.8206 55.7971 12.5349C55.7971 13.2492 55.9686 13.7835 56.3114 14.1635C56.6543 14.5435 57.0829 14.732 57.6 14.732C58.1171 14.732 58.5571 14.5435 58.92 14.1635" fill="white"/>
<path d="M72.3571 8.12921V16.9464H69.6543V15.7464C69.38 16.1349 69.0086 16.4492 68.54 16.6864C68.0714 16.9235 67.5514 17.0406 66.9829 17.0406C66.3086 17.0406 65.7143 16.8892 65.1971 16.5892C64.68 16.2892 64.28 15.8549 63.9971 15.2864C63.7143 14.7178 63.5714 14.0492 63.5714 13.2806V8.12921H66.2571V12.9178C66.2571 13.5064 66.4086 13.9664 66.7143 14.2921C67.02 14.6178 67.4314 14.7806 67.9457 14.7806C68.46 14.7806 68.8886 14.6178 69.1943 14.2921C69.5 13.9664 69.6514 13.5064 69.6514 12.9178V8.12921H72.3543H72.3571Z" fill="white"/>
<path d="M75.8314 16.6778C75.2314 16.4149 74.7571 16.0549 74.4086 15.5949C74.06 15.1378 73.8657 14.6235 73.8229 14.0549H76.4943C76.5257 14.3606 76.6686 14.6063 76.92 14.7978C77.1743 14.9863 77.4829 15.0835 77.8514 15.0835C78.1886 15.0835 78.4486 15.0178 78.6343 14.8863C78.82 14.7549 78.9114 14.5835 78.9114 14.3721C78.9114 14.1178 78.78 13.9321 78.5171 13.8121C78.2543 13.6921 77.8286 13.5578 77.2371 13.4092C76.6057 13.2606 76.0771 13.1063 75.6571 12.9435C75.2343 12.7806 74.8714 12.5235 74.5657 12.1692C74.26 11.8149 74.1086 11.3406 74.1086 10.7406C74.1086 10.2349 74.2486 9.77492 74.5286 9.35778C74.8086 8.94063 75.2171 8.61206 75.76 8.3692C76.3029 8.12635 76.9486 8.00635 77.6971 8.00635C78.8028 8.00635 79.6743 8.28063 80.3114 8.82921C80.9486 9.37778 81.3143 10.1035 81.4086 11.0092H78.9114C78.8686 10.7035 78.7343 10.4606 78.5086 10.2835C78.2828 10.1035 77.9829 10.0149 77.6171 10.0149C77.3 10.0149 77.0571 10.0749 76.8914 10.1978C76.7228 10.3178 76.6371 10.4863 76.6371 10.6949C76.6371 10.9463 76.7714 11.1378 77.04 11.2635C77.3086 11.3892 77.7286 11.5178 78.2971 11.6435C78.9514 11.8121 79.4829 11.9778 79.8943 12.1406C80.3057 12.3035 80.6657 12.5663 80.9771 12.9292C81.2886 13.2921 81.4486 13.7806 81.46 14.3921C81.46 14.9092 81.3143 15.3692 81.0257 15.7749C80.7371 16.1806 80.32 16.5006 79.7771 16.7321C79.2343 16.9635 78.6057 17.0806 77.8886 17.0806C77.12 17.0806 76.4343 16.9492 75.8343 16.6863" fill="white"/>
<path d="M83.0943 10.1349C83.4371 9.44919 83.9029 8.92348 84.4914 8.55491C85.08 8.18634 85.74 8.00348 86.4657 8.00348C87.0857 8.00348 87.6314 8.12919 88.1 8.38348C88.5686 8.63776 88.9286 8.96919 89.1829 9.37776V8.12919H91.8857V16.9463H89.1829V15.6978C88.92 16.1092 88.5543 16.4406 88.0857 16.6949C87.6171 16.9463 87.0714 17.0749 86.4514 17.0749C85.7343 17.0749 85.0829 16.8892 84.4914 16.5149C83.9 16.1406 83.4343 15.6092 83.0943 14.9206C82.7514 14.2292 82.58 13.4321 82.58 12.5263C82.58 11.6206 82.7514 10.8263 83.0943 10.1406M88.6228 10.9406C88.2486 10.5521 87.7943 10.3549 87.2571 10.3549C86.72 10.3549 86.2657 10.5463 85.8914 10.932C85.5171 11.3178 85.3314 11.8463 85.3314 12.5206C85.3314 13.1949 85.5171 13.7292 85.8914 14.1235C86.2657 14.5178 86.72 14.7149 87.2571 14.7149C87.7943 14.7149 88.2486 14.5206 88.6228 14.1292C88.9971 13.7406 89.1829 13.2063 89.1829 12.5349C89.1829 11.8635 88.9943 11.3292 88.6228 10.9378" fill="white"/>
<path d="M101.691 9.03776C102.309 9.70633 102.614 10.6263 102.614 11.7949V16.9463H99.9286V12.1578C99.9286 11.5663 99.7771 11.1092 99.4714 10.7835C99.1657 10.4578 98.7543 10.2949 98.24 10.2949C97.7257 10.2949 97.3143 10.4578 97.0086 10.7835C96.7028 11.1092 96.5514 11.5692 96.5514 12.1578V16.9463H93.8486V8.12919H96.5514V9.29776C96.8257 8.90919 97.1943 8.60062 97.6571 8.37204C98.12 8.14633 98.6428 8.03204 99.22 8.03204C100.251 8.03204 101.077 8.36633 101.694 9.0349" fill="white"/>
<path d="M104.471 10.1349C104.814 9.44919 105.28 8.92348 105.869 8.5549C106.457 8.18633 107.117 8.00348 107.843 8.00348C108.423 8.00348 108.951 8.12348 109.431 8.36633C109.911 8.60919 110.289 8.9349 110.56 9.34633V5.36633H113.263V16.9463H110.56V15.6835C110.306 16.1063 109.946 16.4435 109.477 16.6949C109.009 16.9463 108.463 17.0749 107.843 17.0749C107.117 17.0749 106.457 16.8892 105.869 16.5149C105.277 16.1406 104.811 15.6092 104.471 14.9206C104.129 14.2292 103.957 13.432 103.957 12.5263C103.957 11.6206 104.129 10.8263 104.471 10.1406M110.003 10.9406C109.629 10.552 109.174 10.3549 108.637 10.3549C108.1 10.3549 107.646 10.5463 107.271 10.932C106.897 11.3178 106.711 11.8463 106.711 12.5206C106.711 13.1949 106.897 13.7292 107.271 14.1235C107.646 14.5178 108.1 14.7149 108.637 14.7149C109.174 14.7149 109.629 14.5206 110.003 14.1292C110.377 13.7406 110.563 13.2063 110.563 12.5349C110.563 11.8635 110.374 11.3292 110.003 10.9378" fill="white"/>
<path d="M116.757 16.6778C116.157 16.4149 115.683 16.0549 115.334 15.5949C114.986 15.1378 114.791 14.6235 114.749 14.0549H117.42C117.451 14.3606 117.594 14.6063 117.846 14.7978C118.1 14.9863 118.409 15.0835 118.777 15.0835C119.114 15.0835 119.374 15.0178 119.56 14.8863C119.746 14.7549 119.837 14.5835 119.837 14.3721C119.837 14.1178 119.706 13.9321 119.443 13.8121C119.18 13.6921 118.751 13.5578 118.163 13.4092C117.531 13.2606 117.003 13.1063 116.583 12.9435C116.163 12.7806 115.797 12.5235 115.491 12.1692C115.186 11.8149 115.034 11.3406 115.034 10.7406C115.034 10.2349 115.174 9.77492 115.454 9.35778C115.734 8.94063 116.143 8.61206 116.686 8.3692C117.229 8.12635 117.874 8.00635 118.623 8.00635C119.729 8.00635 120.6 8.28063 121.237 8.82921C121.874 9.37778 122.24 10.1035 122.334 11.0092H119.837C119.794 10.7035 119.66 10.4606 119.434 10.2835C119.209 10.1035 118.909 10.0149 118.543 10.0149C118.226 10.0149 117.986 10.0749 117.817 10.1978C117.649 10.3178 117.566 10.4863 117.566 10.6949C117.566 10.9463 117.7 11.1378 117.969 11.2635C118.237 11.3892 118.657 11.5178 119.226 11.6435C119.88 11.8121 120.411 11.9778 120.823 12.1406C121.234 12.3035 121.594 12.5663 121.906 12.9292C122.217 13.2921 122.377 13.7806 122.389 14.3921C122.389 14.9092 122.243 15.3692 121.954 15.7749C121.666 16.1806 121.249 16.5006 120.706 16.7321C120.163 16.9635 119.534 17.0806 118.817 17.0806C118.049 17.0806 117.363 16.9492 116.763 16.6863" fill="white"/>
</g>
<defs>
<clipPath id="clip0_3_280">
<rect width="122" height="24" fill="white" transform="translate(0.5 0.183472)"/>
</clipPath>
</defs>
</svg>
