<svg width="24" height="24" viewBox="0 0 24 24" fill="none" xmlns="http://www.w3.org/2000/svg">
<g clip-path="url(#clip0_3_400)">
<path d="M7.11143 3.55714C7.11143 5.52 5.52 7.11428 3.55429 7.11428C1.58857 7.11428 0 5.52 0 3.55714C0 1.59429 1.59143 0 3.55714 0C5.52286 0 7.11428 1.59143 7.11428 3.55714" fill="white"/>
<path d="M15.5572 3.55714C15.5572 5.52 13.9657 7.11428 12 7.11428C10.0343 7.11428 8.44287 5.52286 8.44287 3.55714C8.44287 1.59143 10.0372 0 12 0C13.9629 0 15.5572 1.59143 15.5572 3.55714Z" fill="white"/>
<path d="M24 3.55714C24 5.52 22.4085 7.11428 20.4428 7.11428C18.4771 7.11428 16.8857 5.52286 16.8857 3.55714C16.8857 1.59143 18.48 0 20.4457 0C22.4114 0 24.0028 1.59143 24.0028 3.55714" fill="white"/>
<path d="M24 20.4457C24 22.4085 22.4085 24.0028 20.4428 24.0028C18.4771 24.0028 16.8857 22.4114 16.8857 20.4457C16.8857 18.48 18.4771 16.8885 20.4428 16.8885C22.4085 16.8885 24 18.48 24 20.4457Z" fill="#FFD700"/>
<path d="M24 11.9343C24 13.8971 22.4085 15.4914 20.4428 15.4914C18.4771 15.4914 16.8857 13.9 16.8857 11.9343C16.8857 9.96856 18.4771 8.37714 20.4428 8.37714C22.4085 8.37714 24 9.96856 24 11.9343Z" fill="#FCA100"/>
<path d="M7.11143 20.4457C7.11143 22.4085 5.52 24.0028 3.55429 24.0028C1.58857 24.0028 0 22.4085 0 20.4457C0 18.4828 1.59143 16.8885 3.55714 16.8885C5.52286 16.8885 7.11428 18.48 7.11428 20.4457" fill="#FCA100"/>
<path d="M7.11143 11.9343C7.11143 13.8971 5.52 15.4914 3.55429 15.4914C1.58857 15.4914 0 13.8971 0 11.9343C0 9.97142 1.59143 8.37714 3.55714 8.37714C5.52286 8.37714 7.11428 9.96856 7.11428 11.9343" fill="#FFD700"/>
<path d="M12 8.44574C13.9629 8.44574 15.5572 10.0372 15.5572 12.0029C15.5572 13.9686 13.9657 15.56 12 15.56C10.0343 15.56 8.44287 13.9686 8.44287 12.0029C8.44287 10.0372 10.0343 8.44574 12 8.44574Z" fill="white"/>
<path d="M12 16.8885C13.9629 16.8885 15.5572 18.48 15.5572 20.4457C15.5572 22.4114 13.9657 24.0028 12 24.0028C10.0343 24.0028 8.44287 22.4114 8.44287 20.4457C8.44287 18.48 10.0343 16.8885 12 16.8885Z" fill="white"/>
</g>
<defs>
<clipPath id="clip0_3_400">
<rect width="24" height="24" fill="white"/>
</clipPath>
</defs>
</svg>
